<mxfile host="app.diagrams.net" modified="2023-12-26T13:55:00.091Z" agent="Mozilla/5.0 (Windows NT 10.0; Win64; x64) AppleWebKit/537.36 (KHTML, like Gecko) Chrome/120.0.0.0 Safari/537.36" etag="0W5On3vnvbcNLPcd-qn0" version="22.1.11" type="device">
  <diagram name="PÃ¡gina-1" id="rd0yEJmIR87j53V_kU09">
    <mxGraphModel dx="880" dy="522" grid="1" gridSize="10" guides="1" tooltips="1" connect="1" arrows="1" fold="1" page="1" pageScale="1" pageWidth="827" pageHeight="1169" math="0" shadow="0">
      <root>
        <mxCell id="0" />
        <mxCell id="1" parent="0" />
        <mxCell id="CVqqQkIBb616akaZdqut-42" value="" style="edgeStyle=orthogonalEdgeStyle;rounded=0;orthogonalLoop=1;jettySize=auto;html=1;" edge="1" parent="1" source="CVqqQkIBb616akaZdqut-1" target="CVqqQkIBb616akaZdqut-16">
          <mxGeometry relative="1" as="geometry" />
        </mxCell>
        <mxCell id="CVqqQkIBb616akaZdqut-1" value="" style="image;html=1;image=img/lib/clip_art/networking/Router_Icon_128x128.png" vertex="1" parent="1">
          <mxGeometry x="360" y="100" width="80" height="80" as="geometry" />
        </mxCell>
        <mxCell id="CVqqQkIBb616akaZdqut-2" value="" style="fontColor=#0066CC;verticalAlign=top;verticalLabelPosition=bottom;labelPosition=center;align=center;html=1;outlineConnect=0;fillColor=#CCCCCC;strokeColor=#6881B3;gradientColor=none;gradientDirection=north;strokeWidth=2;shape=mxgraph.networks.pc;" vertex="1" parent="1">
          <mxGeometry x="660" y="340" width="100" height="70" as="geometry" />
        </mxCell>
        <mxCell id="CVqqQkIBb616akaZdqut-3" value="" style="fontColor=#0066CC;verticalAlign=top;verticalLabelPosition=bottom;labelPosition=center;align=center;html=1;outlineConnect=0;fillColor=#CCCCCC;strokeColor=#6881B3;gradientColor=none;gradientDirection=north;strokeWidth=2;shape=mxgraph.networks.pc;" vertex="1" parent="1">
          <mxGeometry x="650" y="190" width="100" height="70" as="geometry" />
        </mxCell>
        <mxCell id="CVqqQkIBb616akaZdqut-4" value="" style="image;aspect=fixed;perimeter=ellipsePerimeter;html=1;align=center;shadow=0;dashed=0;spacingTop=3;image=img/lib/active_directory/database_server.svg;" vertex="1" parent="1">
          <mxGeometry x="17.799999999999997" y="350" width="65.6" height="80" as="geometry" />
        </mxCell>
        <mxCell id="CVqqQkIBb616akaZdqut-26" style="edgeStyle=orthogonalEdgeStyle;rounded=0;orthogonalLoop=1;jettySize=auto;html=1;" edge="1" parent="1" source="CVqqQkIBb616akaZdqut-5" target="CVqqQkIBb616akaZdqut-1">
          <mxGeometry relative="1" as="geometry" />
        </mxCell>
        <mxCell id="CVqqQkIBb616akaZdqut-43" value="" style="edgeStyle=orthogonalEdgeStyle;rounded=0;orthogonalLoop=1;jettySize=auto;html=1;" edge="1" parent="1" source="CVqqQkIBb616akaZdqut-5" target="CVqqQkIBb616akaZdqut-12">
          <mxGeometry relative="1" as="geometry" />
        </mxCell>
        <mxCell id="CVqqQkIBb616akaZdqut-5" value="" style="image;html=1;image=img/lib/clip_art/networking/Firewall_02_128x128.png" vertex="1" parent="1">
          <mxGeometry x="360" y="240" width="80" height="80" as="geometry" />
        </mxCell>
        <mxCell id="CVqqQkIBb616akaZdqut-6" value="Windows PC" style="text;html=1;strokeColor=none;fillColor=none;align=center;verticalAlign=middle;whiteSpace=wrap;rounded=0;" vertex="1" parent="1">
          <mxGeometry x="660" y="160" width="130" height="30" as="geometry" />
        </mxCell>
        <mxCell id="CVqqQkIBb616akaZdqut-7" value="Linux pc" style="text;html=1;strokeColor=none;fillColor=none;align=center;verticalAlign=middle;whiteSpace=wrap;rounded=0;" vertex="1" parent="1">
          <mxGeometry x="690" y="290" width="60" height="30" as="geometry" />
        </mxCell>
        <mxCell id="CVqqQkIBb616akaZdqut-8" value="Sql Server" style="text;html=1;strokeColor=none;fillColor=none;align=center;verticalAlign=middle;whiteSpace=wrap;rounded=0;" vertex="1" parent="1">
          <mxGeometry x="60" y="450" width="60" height="30" as="geometry" />
        </mxCell>
        <mxCell id="CVqqQkIBb616akaZdqut-9" value="" style="image;aspect=fixed;perimeter=ellipsePerimeter;html=1;align=center;shadow=0;dashed=0;spacingTop=3;image=img/lib/active_directory/database_server.svg;" vertex="1" parent="1">
          <mxGeometry x="30" y="250" width="65.6" height="80" as="geometry" />
        </mxCell>
        <mxCell id="CVqqQkIBb616akaZdqut-10" value="Linux&lt;br&gt;Web-server&lt;br&gt;DHCP server&lt;br&gt;DNS Server&lt;br&gt;SSH server&lt;br&gt;Mail-server" style="text;html=1;strokeColor=none;fillColor=none;align=center;verticalAlign=middle;whiteSpace=wrap;rounded=0;" vertex="1" parent="1">
          <mxGeometry x="5.599999999999994" y="165" width="90" height="50" as="geometry" />
        </mxCell>
        <mxCell id="CVqqQkIBb616akaZdqut-11" style="edgeStyle=orthogonalEdgeStyle;rounded=0;orthogonalLoop=1;jettySize=auto;html=1;exitX=0.5;exitY=1;exitDx=0;exitDy=0;" edge="1" parent="1" source="CVqqQkIBb616akaZdqut-10" target="CVqqQkIBb616akaZdqut-10">
          <mxGeometry relative="1" as="geometry" />
        </mxCell>
        <mxCell id="CVqqQkIBb616akaZdqut-40" value="" style="edgeStyle=orthogonalEdgeStyle;rounded=0;orthogonalLoop=1;jettySize=auto;html=1;" edge="1" parent="1" source="CVqqQkIBb616akaZdqut-12" target="CVqqQkIBb616akaZdqut-28">
          <mxGeometry relative="1" as="geometry" />
        </mxCell>
        <mxCell id="CVqqQkIBb616akaZdqut-12" value="" style="sketch=0;outlineConnect=0;fontColor=#232F3E;gradientColor=none;fillColor=#C925D1;strokeColor=none;dashed=0;verticalLabelPosition=bottom;verticalAlign=top;align=center;html=1;fontSize=12;fontStyle=0;aspect=fixed;pointerEvents=1;shape=mxgraph.aws4.rds_proxy;" vertex="1" parent="1">
          <mxGeometry x="200" y="270" width="78" height="78" as="geometry" />
        </mxCell>
        <mxCell id="CVqqQkIBb616akaZdqut-13" value="172.168.0.0/24" style="text;html=1;strokeColor=none;fillColor=none;align=center;verticalAlign=middle;whiteSpace=wrap;rounded=0;" vertex="1" parent="1">
          <mxGeometry x="130" y="240" width="60" height="30" as="geometry" />
        </mxCell>
        <mxCell id="CVqqQkIBb616akaZdqut-14" value="192.168.10.0/24" style="text;html=1;strokeColor=none;fillColor=none;align=center;verticalAlign=middle;whiteSpace=wrap;rounded=0;" vertex="1" parent="1">
          <mxGeometry x="580" y="130" width="60" height="30" as="geometry" />
        </mxCell>
        <mxCell id="CVqqQkIBb616akaZdqut-15" value="200.200.200.200" style="text;html=1;strokeColor=none;fillColor=none;align=center;verticalAlign=middle;whiteSpace=wrap;rounded=0;" vertex="1" parent="1">
          <mxGeometry x="278" y="70" width="60" height="30" as="geometry" />
        </mxCell>
        <mxCell id="CVqqQkIBb616akaZdqut-16" value="" style="verticalLabelPosition=bottom;html=1;verticalAlign=top;align=center;strokeColor=none;fillColor=#00BEF2;shape=mxgraph.azure.laptop;pointerEvents=1;" vertex="1" parent="1">
          <mxGeometry x="375" y="20" width="50" height="30" as="geometry" />
        </mxCell>
        <mxCell id="CVqqQkIBb616akaZdqut-33" value="" style="edgeStyle=orthogonalEdgeStyle;rounded=0;orthogonalLoop=1;jettySize=auto;html=1;" edge="1" parent="1" source="CVqqQkIBb616akaZdqut-17" target="CVqqQkIBb616akaZdqut-18">
          <mxGeometry relative="1" as="geometry" />
        </mxCell>
        <mxCell id="CVqqQkIBb616akaZdqut-17" value="" style="fontColor=#0066CC;verticalAlign=top;verticalLabelPosition=bottom;labelPosition=center;align=center;html=1;outlineConnect=0;fillColor=#CCCCCC;strokeColor=#6881B3;gradientColor=none;gradientDirection=north;strokeWidth=2;shape=mxgraph.networks.pc;" vertex="1" parent="1">
          <mxGeometry x="350" y="780" width="100" height="70" as="geometry" />
        </mxCell>
        <mxCell id="CVqqQkIBb616akaZdqut-25" style="edgeStyle=orthogonalEdgeStyle;rounded=0;orthogonalLoop=1;jettySize=auto;html=1;exitX=0.5;exitY=0;exitDx=0;exitDy=0;" edge="1" parent="1" source="CVqqQkIBb616akaZdqut-18" target="CVqqQkIBb616akaZdqut-20">
          <mxGeometry relative="1" as="geometry" />
        </mxCell>
        <mxCell id="CVqqQkIBb616akaZdqut-18" value="" style="image;html=1;image=img/lib/clip_art/networking/Router_Icon_128x128.png" vertex="1" parent="1">
          <mxGeometry x="360" y="650" width="80" height="80" as="geometry" />
        </mxCell>
        <mxCell id="CVqqQkIBb616akaZdqut-19" value="192.168.10.1" style="text;html=1;strokeColor=none;fillColor=none;align=center;verticalAlign=middle;whiteSpace=wrap;rounded=0;" vertex="1" parent="1">
          <mxGeometry x="250" y="760" width="60" height="30" as="geometry" />
        </mxCell>
        <mxCell id="CVqqQkIBb616akaZdqut-44" value="" style="edgeStyle=orthogonalEdgeStyle;rounded=0;orthogonalLoop=1;jettySize=auto;html=1;" edge="1" parent="1" source="CVqqQkIBb616akaZdqut-20" target="CVqqQkIBb616akaZdqut-28">
          <mxGeometry relative="1" as="geometry" />
        </mxCell>
        <mxCell id="CVqqQkIBb616akaZdqut-20" value="" style="image;html=1;image=img/lib/clip_art/networking/Router_Icon_128x128.png" vertex="1" parent="1">
          <mxGeometry x="360" y="425" width="80" height="80" as="geometry" />
        </mxCell>
        <mxCell id="CVqqQkIBb616akaZdqut-21" value="80.95.0.0/24" style="text;html=1;strokeColor=none;fillColor=none;align=center;verticalAlign=middle;whiteSpace=wrap;rounded=0;" vertex="1" parent="1">
          <mxGeometry x="460" y="690" width="60" height="30" as="geometry" />
        </mxCell>
        <mxCell id="CVqqQkIBb616akaZdqut-22" value="220.220.220.0/24" style="text;html=1;strokeColor=none;fillColor=none;align=center;verticalAlign=middle;whiteSpace=wrap;rounded=0;" vertex="1" parent="1">
          <mxGeometry x="315" y="210" width="60" height="30" as="geometry" />
        </mxCell>
        <mxCell id="CVqqQkIBb616akaZdqut-23" value="220.220.220.0/24" style="text;html=1;strokeColor=none;fillColor=none;align=center;verticalAlign=middle;whiteSpace=wrap;rounded=0;" vertex="1" parent="1">
          <mxGeometry x="290" y="470" width="60" height="30" as="geometry" />
        </mxCell>
        <mxCell id="CVqqQkIBb616akaZdqut-27" value="" style="image;html=1;image=img/lib/clip_art/networking/Switch_128x128.png" vertex="1" parent="1">
          <mxGeometry x="570" y="240" width="80" height="80" as="geometry" />
        </mxCell>
        <mxCell id="CVqqQkIBb616akaZdqut-28" value="" style="image;html=1;image=img/lib/clip_art/networking/Switch_128x128.png" vertex="1" parent="1">
          <mxGeometry x="360" y="320" width="80" height="80" as="geometry" />
        </mxCell>
        <mxCell id="CVqqQkIBb616akaZdqut-45" value="" style="edgeStyle=orthogonalEdgeStyle;rounded=0;orthogonalLoop=1;jettySize=auto;html=1;" edge="1" parent="1" source="CVqqQkIBb616akaZdqut-29" target="CVqqQkIBb616akaZdqut-28">
          <mxGeometry relative="1" as="geometry" />
        </mxCell>
        <mxCell id="CVqqQkIBb616akaZdqut-50" style="edgeStyle=elbowEdgeStyle;rounded=0;orthogonalLoop=1;jettySize=auto;html=1;exitX=1;exitY=0.5;exitDx=0;exitDy=0;" edge="1" parent="1" source="CVqqQkIBb616akaZdqut-29" target="CVqqQkIBb616akaZdqut-34">
          <mxGeometry relative="1" as="geometry" />
        </mxCell>
        <mxCell id="CVqqQkIBb616akaZdqut-29" value="" style="image;html=1;image=img/lib/clip_art/networking/Router_Icon_128x128.png" vertex="1" parent="1">
          <mxGeometry x="470" y="310" width="80" height="80" as="geometry" />
        </mxCell>
        <mxCell id="CVqqQkIBb616akaZdqut-30" value="Vlan 20 - 56 pcs" style="text;html=1;strokeColor=none;fillColor=none;align=center;verticalAlign=middle;whiteSpace=wrap;rounded=0;" vertex="1" parent="1">
          <mxGeometry x="660" y="90" width="110" height="30" as="geometry" />
        </mxCell>
        <mxCell id="CVqqQkIBb616akaZdqut-31" value="Vlan-30 47" style="text;html=1;strokeColor=none;fillColor=none;align=center;verticalAlign=middle;whiteSpace=wrap;rounded=0;" vertex="1" parent="1">
          <mxGeometry x="680" y="430" width="100" height="30" as="geometry" />
        </mxCell>
        <mxCell id="CVqqQkIBb616akaZdqut-32" value="Outside Virtual Private Network" style="text;html=1;strokeColor=none;fillColor=none;align=center;verticalAlign=middle;whiteSpace=wrap;rounded=0;" vertex="1" parent="1">
          <mxGeometry x="480" y="630" width="150" height="50" as="geometry" />
        </mxCell>
        <mxCell id="CVqqQkIBb616akaZdqut-34" value="" style="image;html=1;image=img/lib/clip_art/networking/Switch_128x128.png" vertex="1" parent="1">
          <mxGeometry x="570" y="310" width="80" height="80" as="geometry" />
        </mxCell>
        <mxCell id="CVqqQkIBb616akaZdqut-35" value="" style="image;html=1;image=img/lib/clip_art/networking/Switch_128x128.png" vertex="1" parent="1">
          <mxGeometry x="570" y="370" width="80" height="80" as="geometry" />
        </mxCell>
        <mxCell id="CVqqQkIBb616akaZdqut-36" value="Outside Access To Servers" style="text;html=1;strokeColor=none;fillColor=none;align=center;verticalAlign=middle;whiteSpace=wrap;rounded=0;" vertex="1" parent="1">
          <mxGeometry x="278" y="20" width="60" height="30" as="geometry" />
        </mxCell>
        <mxCell id="CVqqQkIBb616akaZdqut-37" value="LAN" style="text;html=1;strokeColor=none;fillColor=none;align=center;verticalAlign=middle;whiteSpace=wrap;rounded=0;" vertex="1" parent="1">
          <mxGeometry x="680" y="40" width="60" height="30" as="geometry" />
        </mxCell>
        <mxCell id="CVqqQkIBb616akaZdqut-39" value="192.168.10.5/24" style="text;html=1;strokeColor=none;fillColor=none;align=center;verticalAlign=middle;whiteSpace=wrap;rounded=0;" vertex="1" parent="1">
          <mxGeometry x="460" y="20" width="60" height="30" as="geometry" />
        </mxCell>
        <mxCell id="CVqqQkIBb616akaZdqut-41" value="DMZ" style="text;html=1;strokeColor=none;fillColor=none;align=center;verticalAlign=middle;whiteSpace=wrap;rounded=0;" vertex="1" parent="1">
          <mxGeometry x="130" y="200" width="60" height="30" as="geometry" />
        </mxCell>
      </root>
    </mxGraphModel>
  </diagram>
</mxfile>
